<svg width="2020" height="321" viewBox="0 0 2020 321" fill="none" xmlns="http://www.w3.org/2000/svg">
<g clip-path="url(#clip0_399_2219)">
<mask id="mask0_399_2219" style="mask-type:luminance" maskUnits="userSpaceOnUse" x="0" y="0" width="2020" height="321">
<path d="M2020 0H0V321H2020V0Z" fill="white"/>
</mask>
<g mask="url(#mask0_399_2219)">
<path d="M2020 0H0V321H2020V0Z" fill="#FFD43C"/>
<mask id="mask1_399_2219" style="mask-type:luminance" maskUnits="userSpaceOnUse" x="1408" y="-35" width="390" height="390">
<path d="M1715.16 -34.725L1408 47.5781L1490.3 354.738L1797.46 272.435L1715.16 -34.725Z" fill="white"/>
</mask>
<g mask="url(#mask1_399_2219)">
<path d="M1561.58 6.42188L1509.16 188.092L1618.42 218.542L1697.81 137.544L1561.58 6.42188ZM1643.88 313.582L1513.95 205.971L1623.31 236.792L1702.6 155.423L1643.88 313.582Z" fill="#222222" fill-opacity="0.44"/>
</g>
<mask id="mask2_399_2219" style="mask-type:luminance" maskUnits="userSpaceOnUse" x="-758" y="-907" width="1813" height="1814">
<path d="M671.696 -906.008L-758 -522.922L-374.914 906.774L1054.78 523.688L671.696 -906.008Z" fill="white"/>
</mask>
<g mask="url(#mask2_399_2219)">
<path d="M-43.1519 -714.469L-287.133 131.123L221.4 272.854L590.938 -104.156L-43.1519 -714.469ZM339.934 715.225L-264.834 214.343L244.162 357.802L613.237 -20.9352L339.934 715.225Z" fill="#222222" fill-opacity="0.44"/>
</g>
</g>
<path d="M152.641 183.264C152.836 183.296 153.048 183.312 153.275 183.312C153.503 183.312 153.731 183.312 153.959 183.312C161.316 183.312 166.28 180.546 168.852 175.012C169.535 173.514 170.121 172.049 170.609 170.617C171.13 169.152 171.635 167.801 172.123 166.564C172.644 165.327 173.327 164.367 174.174 163.684H177.494V188H152.641V183.264ZM148.246 188H125.053V184.387C125.932 184.029 126.778 183.768 127.592 183.605C128.438 183.41 129.187 183.15 129.838 182.824C131.303 182.108 132.035 180.741 132.035 178.723V127.99C132.035 125.939 131.303 124.556 129.838 123.84C129.187 123.514 128.438 123.27 127.592 123.107C126.778 122.912 125.932 122.635 125.053 122.277V118.615H155.57V122.277C154.594 122.635 153.666 122.912 152.787 123.107C151.908 123.27 151.143 123.514 150.492 123.84C148.995 124.556 148.246 125.939 148.246 127.99V188ZM201.176 179.797C201.176 181.49 201.957 182.645 203.52 183.264C204.171 183.524 204.87 183.752 205.619 183.947C206.368 184.143 207.068 184.452 207.719 184.875V188H180.229V184.875C180.847 184.452 181.531 184.143 182.279 183.947C183.028 183.752 183.728 183.524 184.379 183.264C185.909 182.645 186.674 181.49 186.674 179.797V147.424C186.674 145.666 185.909 144.51 184.379 143.957C183.728 143.697 183.028 143.485 182.279 143.322C181.531 143.127 180.847 142.801 180.229 142.346V138.928H201.176V179.797ZM193.07 133.117C191.833 133.117 190.71 132.889 189.701 132.434C188.692 131.978 187.829 131.359 187.113 130.578C185.616 128.951 184.867 126.965 184.867 124.621C184.867 122.342 185.616 120.357 187.113 118.664C188.676 116.939 190.661 116.076 193.07 116.076C195.512 116.076 197.514 116.939 199.076 118.664C200.574 120.357 201.322 122.342 201.322 124.621C201.322 126.965 200.574 128.951 199.076 130.578C197.514 132.271 195.512 133.117 193.07 133.117ZM231.107 143.811C228.113 144.624 226.615 146.04 226.615 148.059C226.615 151.314 229.464 154.032 235.16 156.213C239.652 157.938 242.826 159.289 244.682 160.266C246.57 161.21 248.148 162.251 249.418 163.391C252.25 165.995 253.666 169.234 253.666 173.107C253.666 177.697 251.924 181.376 248.441 184.143C245.056 186.812 240.727 188.342 235.453 188.732V182.873C238.871 182.059 240.58 180.171 240.58 177.209C240.58 174.149 237.781 171.529 232.182 169.348C227.787 167.655 224.662 166.337 222.807 165.393C220.984 164.449 219.454 163.423 218.217 162.316C215.45 159.842 214.066 156.799 214.066 153.186C214.066 149.279 215.727 145.812 219.047 142.785C222.4 139.758 226.42 138.146 231.107 137.951V143.811ZM244.486 144.836C243.77 144.543 240.759 144.201 235.453 143.811V137.951C241.117 138.179 245.544 139.53 248.734 142.004C251.404 144.087 252.738 146.398 252.738 148.938C252.738 152.095 251.534 154.178 249.125 155.188C248.279 155.513 247.107 155.676 245.609 155.676C244.112 155.676 242.875 155.204 241.898 154.26C240.954 153.283 240.482 152.095 240.482 150.695C240.482 148.319 241.817 146.366 244.486 144.836ZM222.709 181.506C223.555 182.255 226.355 182.71 231.107 182.873V188.732C225.704 188.309 221.456 186.877 218.363 184.436C215.759 182.352 214.457 179.976 214.457 177.307C214.457 175.549 214.945 174.117 215.922 173.01C216.898 171.87 218.38 171.301 220.365 171.301C222.351 171.301 223.816 171.74 224.76 172.619C225.736 173.498 226.225 174.637 226.225 176.037C226.225 178.479 225.053 180.301 222.709 181.506ZM279.057 122.326V188.732H278.666C273.881 188.732 270.316 187.821 267.973 185.998C265.661 184.175 264.506 181.213 264.506 177.111V144.299H258.012V140.393C258.5 139.872 259.118 139.481 259.867 139.221C260.648 138.96 261.43 138.684 262.211 138.391C264.132 137.674 265.352 136.503 265.873 134.875C267.598 130.122 268.949 127.079 269.926 125.744C270.902 124.377 271.765 123.27 272.514 122.424L279.057 122.326ZM283.402 182.873C286.039 182.873 287.895 182.027 288.969 180.334C289.424 179.585 289.783 178.739 290.043 177.795C290.303 176.818 290.596 175.842 290.922 174.865L294.877 176.428C294.063 180.204 293.054 182.808 291.85 184.24C290.645 185.64 289.392 186.665 288.09 187.316C286.82 187.967 285.258 188.439 283.402 188.732V182.873ZM283.402 138.928H292.191V144.299H283.402V138.928ZM316.898 179.797C316.898 181.49 317.68 182.645 319.242 183.264C319.893 183.524 320.593 183.752 321.342 183.947C322.09 184.143 322.79 184.452 323.441 184.875V188H295.951V184.875C296.57 184.452 297.253 184.143 298.002 183.947C298.751 183.752 299.451 183.524 300.102 183.264C301.632 182.645 302.396 181.49 302.396 179.797V147.424C302.396 145.666 301.632 144.51 300.102 143.957C299.451 143.697 298.751 143.485 298.002 143.322C297.253 143.127 296.57 142.801 295.951 142.346V138.928H316.898V179.797ZM308.793 133.117C307.556 133.117 306.433 132.889 305.424 132.434C304.415 131.978 303.552 131.359 302.836 130.578C301.339 128.951 300.59 126.965 300.59 124.621C300.59 122.342 301.339 120.357 302.836 118.664C304.398 116.939 306.384 116.076 308.793 116.076C311.234 116.076 313.236 116.939 314.799 118.664C316.296 120.357 317.045 122.342 317.045 124.621C317.045 126.965 316.296 128.951 314.799 130.578C313.236 132.271 311.234 133.117 308.793 133.117ZM352.494 141.076C355.066 138.993 357.719 137.951 360.453 137.951C363.188 137.951 365.417 138.26 367.143 138.879C368.9 139.497 370.382 140.409 371.586 141.613C374.158 144.185 375.443 147.782 375.443 152.404V177.746C375.443 181.001 376.176 182.84 377.641 183.264C378.096 183.394 378.552 183.508 379.008 183.605C380.277 183.866 381.205 184.289 381.791 184.875V188H358.598V184.582C358.598 183.866 358.858 183.28 359.379 182.824C359.932 182.368 360.323 181.978 360.551 181.652C360.811 181.294 360.941 180.741 360.941 179.992V152.893C360.941 149.54 360.714 147.391 360.258 146.447C359.477 144.689 358.256 143.811 356.596 143.811C354.936 143.811 353.568 144.217 352.494 145.031V141.076ZM348.148 177.746C348.148 180.969 348.832 182.808 350.199 183.264C350.622 183.394 351.062 183.508 351.518 183.605C352.722 183.866 353.617 184.289 354.203 184.875V188H327.299V184.875C327.852 184.452 328.487 184.143 329.203 183.947C329.952 183.752 330.652 183.524 331.303 183.264C332.865 182.645 333.646 181.49 333.646 179.797V149.621C333.646 147.31 333.109 145.633 332.035 144.592C331.189 143.745 329.61 142.997 327.299 142.346V138.928H348.148V177.746ZM392.338 186.828C389.05 185.786 387.406 183.996 387.406 181.457C387.406 178.755 389.327 176.053 393.168 173.352L398.734 175.109C397.465 176.086 396.83 177.876 396.83 180.48C410.535 180.48 419.958 181.555 425.102 183.703C427.706 184.777 429.512 186.161 430.521 187.854C431.531 189.514 432.035 191.499 432.035 193.811C432.035 196.122 431.449 198.238 430.277 200.158C429.138 202.079 427.592 203.739 425.639 205.139C421.57 208.068 416.573 209.663 410.648 209.924V205.188C415.303 204.992 418.298 203.267 419.633 200.012C420.023 199.068 420.219 198.059 420.219 196.984C420.219 195.031 419.226 193.42 417.24 192.15C415.255 190.881 412.797 190.246 409.867 190.246C405.31 190.246 402.006 190.393 399.955 190.686C399.467 191.89 399.223 193.225 399.223 194.689V197.57C399.223 199.686 399.727 201.395 400.736 202.697C401.745 203.999 403.601 204.797 406.303 205.09V209.875C398.653 209.452 393.559 206.506 391.02 201.037C390.141 199.149 389.701 196.854 389.701 194.152C389.701 191.451 390.58 189.009 392.338 186.828ZM425.59 135.021C423.507 135.021 422.465 136.324 422.465 138.928C422.465 140.23 422.628 141.076 422.953 141.467C423.311 141.857 423.669 142.199 424.027 142.492C424.418 142.785 425.102 143.404 426.078 144.348C428.161 146.398 429.203 149.816 429.203 154.602C429.203 159.842 427.38 164.107 423.734 167.395C420.251 170.552 415.889 172.294 410.648 172.619V167.98C412.309 167.427 413.448 166.092 414.066 163.977C414.717 161.861 415.043 158.882 415.043 155.041C415.043 151.2 414.717 148.319 414.066 146.398C413.415 144.478 412.276 143.273 410.648 142.785V137.951C413.513 138.049 415.873 138.423 417.729 139.074C417.729 134.647 419.796 131.685 423.93 130.188C425.232 129.699 426.68 129.455 428.275 129.455C429.903 129.455 431.286 129.667 432.426 130.09C433.598 130.48 434.558 131.034 435.307 131.75C436.739 133.085 437.455 134.794 437.455 136.877C437.455 138.96 436.885 140.523 435.746 141.564C434.639 142.606 433.174 143.127 431.352 143.127C429.529 143.127 428.048 142.622 426.908 141.613C425.801 140.604 425.248 139.318 425.248 137.756C425.248 137.17 425.329 136.665 425.492 136.242C425.688 135.786 425.785 135.477 425.785 135.314C425.785 135.119 425.72 135.021 425.59 135.021ZM406.303 172.717C396.57 172.424 390.564 169.217 388.285 163.098C387.471 160.982 387.064 158.492 387.064 155.627C387.064 152.762 387.52 150.288 388.432 148.205C389.376 146.089 390.694 144.315 392.387 142.883C395.74 139.986 400.378 138.342 406.303 137.951V142.785C404.382 143.111 403.048 144.201 402.299 146.057C401.583 147.847 401.225 150.793 401.225 154.895C401.225 158.996 401.599 162.121 402.348 164.27C403.096 166.418 404.415 167.704 406.303 168.127V172.717ZM458.939 143.811C455.945 144.624 454.447 146.04 454.447 148.059C454.447 151.314 457.296 154.032 462.992 156.213C467.484 157.938 470.658 159.289 472.514 160.266C474.402 161.21 475.98 162.251 477.25 163.391C480.082 165.995 481.498 169.234 481.498 173.107C481.498 177.697 479.757 181.376 476.273 184.143C472.888 186.812 468.559 188.342 463.285 188.732V182.873C466.703 182.059 468.412 180.171 468.412 177.209C468.412 174.149 465.613 171.529 460.014 169.348C455.619 167.655 452.494 166.337 450.639 165.393C448.816 164.449 447.286 163.423 446.049 162.316C443.282 159.842 441.898 156.799 441.898 153.186C441.898 149.279 443.559 145.812 446.879 142.785C450.232 139.758 454.252 138.146 458.939 137.951V143.811ZM472.318 144.836C471.602 144.543 468.591 144.201 463.285 143.811V137.951C468.949 138.179 473.376 139.53 476.566 142.004C479.236 144.087 480.57 146.398 480.57 148.938C480.57 152.095 479.366 154.178 476.957 155.188C476.111 155.513 474.939 155.676 473.441 155.676C471.944 155.676 470.707 155.204 469.73 154.26C468.786 153.283 468.314 152.095 468.314 150.695C468.314 148.319 469.649 146.366 472.318 144.836ZM450.541 181.506C451.387 182.255 454.187 182.71 458.939 182.873V188.732C453.536 188.309 449.288 186.877 446.195 184.436C443.591 182.352 442.289 179.976 442.289 177.307C442.289 175.549 442.777 174.117 443.754 173.01C444.73 171.87 446.212 171.301 448.197 171.301C450.183 171.301 451.648 171.74 452.592 172.619C453.568 173.498 454.057 174.637 454.057 176.037C454.057 178.479 452.885 180.301 450.541 181.506Z" fill="black"/>
<path d="M1789.63 188.977C1784.55 188.586 1780.47 186.958 1777.38 184.094C1774.35 181.327 1772.83 177.909 1772.83 173.84C1772.83 169.543 1774.58 166.678 1778.06 165.246C1779.13 164.79 1780.3 164.562 1781.57 164.562C1782.84 164.562 1783.95 164.758 1784.89 165.148C1785.87 165.539 1786.68 166.06 1787.34 166.711C1788.64 168.013 1789.29 169.722 1789.29 171.838C1789.29 173.824 1788.18 175.37 1785.97 176.477C1784.57 177.16 1783.66 177.73 1783.23 178.186C1782.84 178.609 1782.65 179.13 1782.65 179.748C1782.65 180.367 1782.83 180.985 1783.19 181.604C1783.54 182.189 1784.03 182.694 1784.65 183.117C1785.95 183.964 1787.61 184.419 1789.63 184.484V188.977ZM1805.01 132.482C1797.56 132.482 1789.76 132.32 1781.62 131.994V154.699C1781.62 156.945 1780.66 158.068 1778.74 158.068C1776.82 158.068 1775.86 156.783 1775.86 154.211L1776.11 150.402L1776.15 118.42C1783.51 119.201 1790.75 119.592 1797.88 119.592C1805.04 119.592 1809.52 118.697 1811.31 116.906C1812.29 116.906 1813.12 117.069 1813.8 117.395C1813.8 125.142 1810.87 130.171 1805.01 132.482ZM1799.25 153.234C1798.27 151.704 1797.09 150.581 1795.69 149.865C1794.32 149.149 1792.74 148.791 1790.95 148.791C1789.16 148.791 1787.5 149.247 1785.97 150.158V144.836C1788.7 143.404 1791.68 142.688 1794.9 142.688C1798.13 142.688 1801.22 143.241 1804.18 144.348C1807.14 145.454 1809.73 147.001 1811.95 148.986C1816.67 153.251 1819.03 158.719 1819.03 165.393C1819.03 172.163 1816.7 177.681 1812.04 181.945C1807.52 186.177 1801.5 188.521 1793.98 188.977V183.752C1796.71 182.775 1798.78 180.855 1800.18 177.99C1801.61 175.093 1802.33 171.789 1802.33 168.078C1802.33 164.367 1802.05 161.34 1801.5 158.996C1800.98 156.652 1800.23 154.732 1799.25 153.234ZM1842.17 189.514H1835.92L1883.48 117.102H1889.73L1842.17 189.514ZM1880.4 153.918C1878.48 155.611 1877.52 160.77 1877.52 169.396C1877.52 178.023 1878.48 183.231 1880.4 185.021V188.537C1876.04 188.049 1872.65 185.917 1870.25 182.141C1868 178.69 1866.88 174.475 1866.88 169.494C1866.88 164.481 1868 160.266 1870.25 156.848C1872.65 153.104 1876.04 150.988 1880.4 150.5V153.918ZM1884.75 185.021C1886.67 183.231 1887.63 178.023 1887.63 169.396C1887.63 160.77 1886.67 155.611 1884.75 153.918V150.5C1889.11 150.988 1892.51 153.104 1894.95 156.848C1897.17 160.266 1898.27 164.481 1898.27 169.494C1898.27 174.475 1897.17 178.69 1894.95 182.141C1892.51 185.917 1889.11 188.049 1884.75 188.537V185.021ZM1841.05 120.471C1839.13 122.163 1838.17 127.323 1838.17 135.949C1838.17 144.576 1839.13 149.784 1841.05 151.574V155.09C1836.68 154.602 1833.3 152.486 1830.89 148.742C1828.64 145.259 1827.52 141.027 1827.52 136.047C1827.52 131.034 1828.64 126.818 1830.89 123.4C1833.3 119.657 1836.68 117.541 1841.05 117.053V120.471ZM1845.39 151.574C1847.31 149.784 1848.27 144.576 1848.27 135.949C1848.27 127.323 1847.31 122.163 1845.39 120.471V117.053C1849.75 117.541 1853.16 119.657 1855.6 123.4C1857.81 126.818 1858.92 131.034 1858.92 136.047C1858.92 141.027 1857.81 145.259 1855.6 148.742C1853.16 152.486 1849.75 154.602 1845.39 155.09V151.574Z" fill="black"/>
</g>
<defs>
<clipPath id="clip0_399_2219">
<rect width="2020" height="321" fill="white"/>
</clipPath>
</defs>
</svg>
